G75*
G70*
%OFA0B0*%
%FSLAX24Y24*%
%IPPOS*%
%LPD*%
%AMOC8*
5,1,8,0,0,1.08239X$1,22.5*
%
%ADD10C,0.1340*%
%ADD11OC8,0.0740*%
%ADD12C,0.0634*%
%ADD13C,0.0867*%
%ADD14C,0.0640*%
%ADD15OC8,0.0640*%
%ADD16C,0.0480*%
D10*
X002480Y002480D03*
X021480Y001980D03*
X019480Y022480D03*
X008480Y022480D03*
D11*
X002480Y021980D03*
X002480Y020980D03*
X002480Y019980D03*
X002480Y018980D03*
X002480Y017980D03*
X002480Y016980D03*
X002480Y015980D03*
X002480Y014980D03*
X002480Y013380D03*
X002480Y012380D03*
X002480Y011380D03*
X002480Y010380D03*
X002480Y009380D03*
X002480Y008380D03*
X002480Y007380D03*
X002480Y006380D03*
X002480Y005380D03*
X002480Y004380D03*
X021480Y007980D03*
X021480Y008980D03*
X021480Y009980D03*
X021480Y010980D03*
X021480Y011980D03*
X021480Y012980D03*
X021480Y013980D03*
X021480Y014980D03*
X021480Y016980D03*
X021480Y017980D03*
X021480Y018980D03*
X021480Y019980D03*
X021480Y020980D03*
X021480Y021980D03*
D12*
X014780Y018480D03*
X013780Y018480D03*
D13*
X012780Y020480D03*
X016780Y020480D03*
D14*
X006480Y021700D02*
X006480Y022260D01*
X005480Y022260D02*
X005480Y021700D01*
X004480Y021700D02*
X004480Y022260D01*
D15*
X004080Y019980D03*
X005080Y019980D03*
X005080Y018980D03*
X005080Y017980D03*
X005080Y016980D03*
X005080Y015980D03*
X005080Y014980D03*
X005080Y013980D03*
X005080Y012980D03*
X005080Y011980D03*
X005080Y010980D03*
X004080Y010980D03*
X004080Y011980D03*
X004080Y012980D03*
X004080Y013980D03*
X004080Y014980D03*
X004080Y015980D03*
X004080Y016980D03*
X004080Y017980D03*
X004080Y018980D03*
X004080Y009980D03*
X004080Y008980D03*
X005080Y008980D03*
X005080Y009980D03*
X018980Y015780D03*
X018980Y016780D03*
X018980Y017780D03*
X019980Y017780D03*
X019980Y016780D03*
X019980Y015780D03*
X019980Y018780D03*
X019980Y019780D03*
X019980Y020780D03*
X018980Y020780D03*
X018980Y019780D03*
X018980Y018780D03*
D16*
X017240Y014980D03*
X017800Y013300D03*
X018600Y013300D03*
X019720Y013300D03*
X016920Y012500D03*
X014280Y014340D03*
X015240Y015780D03*
X010520Y020020D03*
M02*
