%
M48
M72
T01C0.0240
T02C0.0354
T03C0.0360
T04C0.0394
T05C0.0787
T06C0.1260
%
T01
X14280Y14340
X15240Y15780
X17240Y14980
X17800Y13300
X18600Y13300
X19720Y13300
X16920Y12500
X10520Y20020
T02
X13780Y18480
X14780Y18480
T03
X18980Y18780
X18980Y19780
X18980Y20780
X19980Y20780
X19980Y19780
X19980Y18780
X19980Y17780
X19980Y16780
X19980Y15780
X18980Y15780
X18980Y16780
X18980Y17780
X6480Y21980
X5480Y21980
X4480Y21980
X4080Y19980
X5080Y19980
X5080Y18980
X5080Y17980
X5080Y16980
X5080Y15980
X5080Y14980
X5080Y13980
X5080Y12980
X5080Y11980
X5080Y10980
X4080Y10980
X4080Y11980
X4080Y12980
X4080Y13980
X4080Y14980
X4080Y15980
X4080Y16980
X4080Y17980
X4080Y18980
X4080Y9980
X4080Y8980
X5080Y8980
X5080Y9980
T04
X2480Y10380
X2480Y9380
X2480Y8380
X2480Y7380
X2480Y6380
X2480Y5380
X2480Y4380
X2480Y11380
X2480Y12380
X2480Y13380
X2480Y14980
X2480Y15980
X2480Y16980
X2480Y17980
X2480Y18980
X2480Y19980
X2480Y20980
X2480Y21980
X21480Y21980
X21480Y20980
X21480Y19980
X21480Y18980
X21480Y17980
X21480Y16980
X21480Y14980
X21480Y13980
X21480Y12980
X21480Y11980
X21480Y10980
X21480Y9980
X21480Y8980
X21480Y7980
T05
X16780Y20480
X12780Y20480
T06
X2480Y2480
X21480Y1980
X19480Y22480
X8480Y22480
M30
