G75*
G70*
%OFA0B0*%
%FSLAX24Y24*%
%IPPOS*%
%LPD*%
%AMOC8*
5,1,8,0,0,1.08239X$1,22.5*
%
%ADD10OC8,0.0660*%
%ADD11C,0.0554*%
%ADD12C,0.0560*%
%ADD13OC8,0.0560*%
%ADD14C,0.0160*%
%ADD15C,0.0100*%
%ADD16C,0.0400*%
D10*
X002480Y004380D03*
X002480Y005380D03*
X002480Y006380D03*
X002480Y007380D03*
X002480Y008380D03*
X002480Y009380D03*
X002480Y010380D03*
X002480Y011380D03*
X002480Y012380D03*
X002480Y013380D03*
X002480Y014980D03*
X002480Y015980D03*
X002480Y016980D03*
X002480Y017980D03*
X002480Y018980D03*
X002480Y019980D03*
X002480Y020980D03*
X002480Y021980D03*
X021480Y021980D03*
X021480Y020980D03*
X021480Y019980D03*
X021480Y018980D03*
X021480Y017980D03*
X021480Y016980D03*
X021480Y014980D03*
X021480Y013980D03*
X021480Y012980D03*
X021480Y011980D03*
X021480Y010980D03*
X021480Y009980D03*
X021480Y008980D03*
X021480Y007980D03*
D11*
X014780Y018480D03*
X013780Y018480D03*
D12*
X006480Y021700D02*
X006480Y022260D01*
X005480Y022260D02*
X005480Y021700D01*
X004480Y021700D02*
X004480Y022260D01*
D13*
X004080Y019980D03*
X005080Y019980D03*
X005080Y018980D03*
X005080Y017980D03*
X005080Y016980D03*
X005080Y015980D03*
X005080Y014980D03*
X005080Y013980D03*
X005080Y012980D03*
X005080Y011980D03*
X005080Y010980D03*
X004080Y010980D03*
X004080Y011980D03*
X004080Y012980D03*
X004080Y013980D03*
X004080Y014980D03*
X004080Y015980D03*
X004080Y016980D03*
X004080Y017980D03*
X004080Y018980D03*
X004080Y009980D03*
X004080Y008980D03*
X005080Y008980D03*
X005080Y009980D03*
X018980Y015780D03*
X018980Y016780D03*
X018980Y017780D03*
X019980Y017780D03*
X019980Y016780D03*
X019980Y015780D03*
X019980Y018780D03*
X019980Y019780D03*
X019980Y020780D03*
X018980Y020780D03*
X018980Y019780D03*
X018980Y018780D03*
D14*
X003162Y001592D02*
X002933Y001460D01*
X020499Y001460D01*
X020446Y001552D01*
X020370Y001834D01*
X020370Y002126D01*
X020446Y002408D01*
X020592Y002662D01*
X020798Y002868D01*
X021052Y003014D01*
X021334Y003090D01*
X021626Y003090D01*
X021908Y003014D01*
X021985Y002970D01*
X021985Y012764D01*
X021691Y012470D01*
X021498Y012470D01*
X021498Y012962D01*
X021462Y012962D01*
X021462Y012470D01*
X021269Y012470D01*
X020970Y012769D01*
X020970Y012962D01*
X021462Y012962D01*
X021462Y012998D01*
X020970Y012998D01*
X020970Y013191D01*
X021259Y013480D01*
X020970Y013769D01*
X020970Y013962D01*
X021462Y013962D01*
X021462Y013998D01*
X020970Y013998D01*
X020970Y014191D01*
X021269Y014490D01*
X021462Y014490D01*
X021462Y013998D01*
X021498Y013998D01*
X021498Y014490D01*
X021691Y014490D01*
X021985Y014196D01*
X021985Y022500D01*
X021558Y022500D01*
X021541Y022494D01*
X021463Y022500D01*
X021385Y022500D01*
X021368Y022507D01*
X021351Y022508D01*
X021281Y022543D01*
X021208Y022573D01*
X021196Y022586D01*
X020500Y022933D01*
X020514Y022908D01*
X020590Y022626D01*
X020590Y022334D01*
X020514Y022052D01*
X020368Y021798D01*
X020162Y021592D01*
X019908Y021446D01*
X019626Y021370D01*
X019334Y021370D01*
X019052Y021446D01*
X018798Y021592D01*
X018592Y021798D01*
X018446Y022052D01*
X018370Y022334D01*
X018370Y022626D01*
X018446Y022908D01*
X018499Y023000D01*
X009461Y023000D01*
X009514Y022908D01*
X009590Y022626D01*
X009590Y022334D01*
X009514Y022052D01*
X009368Y021798D01*
X009162Y021592D01*
X009158Y021590D01*
X009247Y021590D01*
X009370Y021467D01*
X010457Y020380D01*
X010592Y020380D01*
X010724Y020325D01*
X010825Y020224D01*
X010880Y020092D01*
X010880Y019957D01*
X014911Y015926D01*
X014935Y015984D01*
X015036Y016085D01*
X015168Y016140D01*
X015312Y016140D01*
X015444Y016085D01*
X015539Y015990D01*
X018568Y015990D01*
X018798Y016220D01*
X019162Y016220D01*
X019420Y015962D01*
X019420Y015598D01*
X019162Y015340D01*
X018798Y015340D01*
X018568Y015570D01*
X015539Y015570D01*
X015444Y015475D01*
X015386Y015451D01*
X015647Y015190D01*
X016941Y015190D01*
X017036Y015285D01*
X017168Y015340D01*
X017312Y015340D01*
X017444Y015285D01*
X017545Y015184D01*
X017600Y015052D01*
X017600Y014917D01*
X018607Y013910D01*
X019407Y013910D01*
X019657Y013660D01*
X019792Y013660D01*
X019924Y013605D01*
X020025Y013504D01*
X020080Y013372D01*
X020080Y013237D01*
X021062Y012255D01*
X021277Y012470D01*
X021683Y012470D01*
X021970Y012183D01*
X021970Y011777D01*
X021683Y011490D01*
X021277Y011490D01*
X020990Y011777D01*
X020990Y011810D01*
X020913Y011810D01*
X020790Y011933D01*
X019783Y012940D01*
X019648Y012940D01*
X019516Y012995D01*
X019415Y013096D01*
X019360Y013228D01*
X019360Y013363D01*
X019233Y013490D01*
X018911Y013490D01*
X018960Y013372D01*
X018960Y013228D01*
X018905Y013096D01*
X018804Y012995D01*
X018672Y012940D01*
X018528Y012940D01*
X018396Y012995D01*
X018301Y013090D01*
X018099Y013090D01*
X018004Y012995D01*
X017872Y012940D01*
X017728Y012940D01*
X017596Y012995D01*
X017501Y013090D01*
X015233Y013090D01*
X015110Y013213D01*
X014343Y013980D01*
X014208Y013980D01*
X014076Y014035D01*
X013975Y014136D01*
X013920Y014268D01*
X013920Y014412D01*
X013975Y014544D01*
X014076Y014645D01*
X014208Y014700D01*
X014352Y014700D01*
X014484Y014645D01*
X014585Y014544D01*
X014640Y014412D01*
X014640Y014277D01*
X015407Y013510D01*
X017501Y013510D01*
X017596Y013605D01*
X017728Y013660D01*
X017872Y013660D01*
X018004Y013605D01*
X018099Y013510D01*
X018301Y013510D01*
X018357Y013566D01*
X018310Y013613D01*
X017303Y014620D01*
X017168Y014620D01*
X017036Y014675D01*
X016941Y014770D01*
X015473Y014770D01*
X015350Y014893D01*
X010583Y019660D01*
X010448Y019660D01*
X010316Y019715D01*
X010215Y019816D01*
X010160Y019948D01*
X010160Y020083D01*
X009073Y021170D01*
X006993Y021170D01*
X006783Y021380D01*
X006729Y021327D01*
X006568Y021260D01*
X006392Y021260D01*
X006231Y021327D01*
X006107Y021451D01*
X006040Y021612D01*
X006040Y022348D01*
X006103Y022500D01*
X005857Y022500D01*
X005920Y022348D01*
X005920Y021612D01*
X005853Y021451D01*
X005729Y021327D01*
X005568Y021260D01*
X005392Y021260D01*
X005231Y021327D01*
X005107Y021451D01*
X005040Y021612D01*
X005040Y022348D01*
X005103Y022500D01*
X004874Y022500D01*
X004906Y022437D01*
X004929Y022368D01*
X004940Y022296D01*
X004940Y021990D01*
X004490Y021990D01*
X004490Y021970D01*
X004940Y021970D01*
X004940Y021664D01*
X004929Y021592D01*
X004906Y021523D01*
X004873Y021459D01*
X004831Y021400D01*
X004780Y021349D01*
X004721Y021307D01*
X004657Y021274D01*
X004588Y021251D01*
X004516Y021240D01*
X004490Y021240D01*
X004490Y021970D01*
X004470Y021970D01*
X004470Y021240D01*
X004444Y021240D01*
X004372Y021251D01*
X004303Y021274D01*
X004239Y021307D01*
X004180Y021349D01*
X004129Y021400D01*
X004087Y021459D01*
X004054Y021523D01*
X004031Y021592D01*
X004020Y021664D01*
X004020Y021970D01*
X004470Y021970D01*
X004470Y021990D01*
X004020Y021990D01*
X004020Y022296D01*
X004031Y022368D01*
X004054Y022437D01*
X004086Y022500D01*
X002365Y022500D01*
X002349Y022470D01*
X002683Y022470D01*
X002970Y022183D01*
X002970Y021777D01*
X002683Y021490D01*
X002277Y021490D01*
X001990Y021777D01*
X001990Y021813D01*
X001975Y021785D01*
X001975Y007596D01*
X002269Y007890D01*
X002462Y007890D01*
X002462Y007398D01*
X002498Y007398D01*
X002498Y007890D01*
X002691Y007890D01*
X002990Y007591D01*
X002990Y007398D01*
X002498Y007398D01*
X002498Y007362D01*
X002990Y007362D01*
X002990Y007169D01*
X002691Y006870D01*
X002498Y006870D01*
X002498Y007362D01*
X002462Y007362D01*
X002462Y006870D01*
X002269Y006870D01*
X001975Y007164D01*
X001975Y003470D01*
X002052Y003514D01*
X002334Y003590D01*
X002626Y003590D01*
X002908Y003514D01*
X003162Y003368D01*
X003368Y003162D01*
X003514Y002908D01*
X003590Y002626D01*
X003590Y002334D01*
X003514Y002052D01*
X003368Y001798D01*
X003162Y001592D01*
X003184Y001614D02*
X020429Y001614D01*
X020387Y001773D02*
X003342Y001773D01*
X003445Y001931D02*
X020370Y001931D01*
X020370Y002090D02*
X003524Y002090D01*
X003567Y002248D02*
X020403Y002248D01*
X020445Y002407D02*
X003590Y002407D01*
X003590Y002565D02*
X020536Y002565D01*
X020654Y002724D02*
X003564Y002724D01*
X003521Y002882D02*
X020822Y002882D01*
X021149Y003041D02*
X003438Y003041D01*
X003331Y003199D02*
X021985Y003199D01*
X021985Y003041D02*
X021811Y003041D01*
X021985Y003358D02*
X003172Y003358D01*
X002902Y003516D02*
X021985Y003516D01*
X021985Y003675D02*
X001975Y003675D01*
X001975Y003833D02*
X021985Y003833D01*
X021985Y003992D02*
X002784Y003992D01*
X002683Y003890D02*
X002970Y004177D01*
X002970Y004583D01*
X002683Y004870D01*
X002277Y004870D01*
X001990Y004583D01*
X001990Y004177D01*
X002277Y003890D01*
X002683Y003890D01*
X002943Y004150D02*
X021985Y004150D01*
X021985Y004309D02*
X002970Y004309D01*
X002970Y004467D02*
X021985Y004467D01*
X021985Y004626D02*
X002927Y004626D01*
X002769Y004784D02*
X021985Y004784D01*
X021985Y004943D02*
X002735Y004943D01*
X002683Y004890D02*
X002970Y005177D01*
X002970Y005583D01*
X002683Y005870D01*
X002277Y005870D01*
X001990Y005583D01*
X001990Y005177D01*
X002277Y004890D01*
X002683Y004890D01*
X002894Y005101D02*
X021985Y005101D01*
X021985Y005260D02*
X002970Y005260D01*
X002970Y005418D02*
X021985Y005418D01*
X021985Y005577D02*
X002970Y005577D01*
X002818Y005735D02*
X021985Y005735D01*
X021985Y005894D02*
X002686Y005894D01*
X002683Y005890D02*
X002970Y006177D01*
X002970Y006583D01*
X002683Y006870D01*
X002277Y006870D01*
X001990Y006583D01*
X001990Y006177D01*
X002277Y005890D01*
X002683Y005890D01*
X002845Y006052D02*
X021985Y006052D01*
X021985Y006211D02*
X002970Y006211D01*
X002970Y006369D02*
X021985Y006369D01*
X021985Y006528D02*
X002970Y006528D01*
X002867Y006686D02*
X021985Y006686D01*
X021985Y006845D02*
X002708Y006845D01*
X002824Y007003D02*
X021985Y007003D01*
X021985Y007162D02*
X002983Y007162D01*
X002990Y007320D02*
X021985Y007320D01*
X021985Y007479D02*
X002990Y007479D01*
X002944Y007637D02*
X021130Y007637D01*
X020990Y007777D02*
X021277Y007490D01*
X021683Y007490D01*
X021970Y007777D01*
X021970Y008183D01*
X021683Y008470D01*
X021277Y008470D01*
X020990Y008183D01*
X020990Y007777D01*
X020990Y007796D02*
X002786Y007796D01*
X002683Y007890D02*
X002970Y008177D01*
X002970Y008583D01*
X002683Y008870D01*
X002277Y008870D01*
X001990Y008583D01*
X001990Y008177D01*
X002277Y007890D01*
X002683Y007890D01*
X002747Y007954D02*
X020990Y007954D01*
X020990Y008113D02*
X002905Y008113D01*
X002970Y008271D02*
X021078Y008271D01*
X021237Y008430D02*
X002970Y008430D01*
X002965Y008588D02*
X003850Y008588D01*
X003898Y008540D02*
X004262Y008540D01*
X004520Y008798D01*
X004520Y009162D01*
X004262Y009420D01*
X003898Y009420D01*
X003640Y009162D01*
X003640Y008798D01*
X003898Y008540D01*
X003691Y008747D02*
X002806Y008747D01*
X002683Y008890D02*
X002970Y009177D01*
X002970Y009583D01*
X002683Y009870D01*
X002277Y009870D01*
X001990Y009583D01*
X001990Y009177D01*
X002277Y008890D01*
X002683Y008890D01*
X002698Y008905D02*
X003640Y008905D01*
X003640Y009064D02*
X002856Y009064D01*
X002970Y009222D02*
X003700Y009222D01*
X003858Y009381D02*
X002970Y009381D01*
X002970Y009539D02*
X021228Y009539D01*
X021277Y009490D02*
X020990Y009777D01*
X020990Y010183D01*
X021277Y010470D01*
X021683Y010470D01*
X021970Y010183D01*
X021970Y009777D01*
X021683Y009490D01*
X021277Y009490D01*
X021277Y009470D02*
X020990Y009183D01*
X020990Y008777D01*
X021277Y008490D01*
X021683Y008490D01*
X021970Y008777D01*
X021970Y009183D01*
X021683Y009470D01*
X021277Y009470D01*
X021188Y009381D02*
X005302Y009381D01*
X005262Y009420D02*
X004898Y009420D01*
X004640Y009162D01*
X004640Y008798D01*
X004898Y008540D01*
X005262Y008540D01*
X005520Y008798D01*
X005520Y009162D01*
X005262Y009420D01*
X005262Y009540D02*
X005520Y009798D01*
X005520Y010162D01*
X005262Y010420D01*
X004898Y010420D01*
X004640Y010162D01*
X004640Y009798D01*
X004898Y009540D01*
X005262Y009540D01*
X005420Y009698D02*
X021070Y009698D01*
X020990Y009856D02*
X005520Y009856D01*
X005520Y010015D02*
X020990Y010015D01*
X020990Y010173D02*
X005509Y010173D01*
X005351Y010332D02*
X021139Y010332D01*
X021277Y010490D02*
X021683Y010490D01*
X021985Y010490D01*
X021985Y010332D02*
X021821Y010332D01*
X021683Y010490D02*
X021970Y010777D01*
X021970Y011183D01*
X021683Y011470D01*
X021277Y011470D01*
X020990Y011183D01*
X020990Y010777D01*
X021277Y010490D01*
X002970Y010490D01*
X002970Y010583D02*
X002683Y010870D01*
X002277Y010870D01*
X001990Y010583D01*
X001990Y010177D01*
X002277Y009890D01*
X002683Y009890D01*
X002970Y010177D01*
X002970Y010583D01*
X002904Y010649D02*
X003789Y010649D01*
X003898Y010540D02*
X004262Y010540D01*
X004520Y010798D01*
X004520Y011162D01*
X004262Y011420D01*
X003898Y011420D01*
X003640Y011162D01*
X003640Y010798D01*
X003898Y010540D01*
X003898Y010420D02*
X003640Y010162D01*
X003640Y009798D01*
X003898Y009540D01*
X004262Y009540D01*
X004520Y009798D01*
X004520Y010162D01*
X004262Y010420D01*
X003898Y010420D01*
X003809Y010332D02*
X002970Y010332D01*
X002966Y010173D02*
X003651Y010173D01*
X003640Y010015D02*
X002807Y010015D01*
X002697Y009856D02*
X003640Y009856D01*
X003740Y009698D02*
X002855Y009698D01*
X002263Y009856D02*
X001975Y009856D01*
X001975Y009698D02*
X002105Y009698D01*
X001990Y009539D02*
X001975Y009539D01*
X001975Y009381D02*
X001990Y009381D01*
X001975Y009222D02*
X001990Y009222D01*
X001975Y009064D02*
X002104Y009064D01*
X001975Y008905D02*
X002262Y008905D01*
X002154Y008747D02*
X001975Y008747D01*
X001975Y008588D02*
X001995Y008588D01*
X001990Y008430D02*
X001975Y008430D01*
X001975Y008271D02*
X001990Y008271D01*
X001975Y008113D02*
X002055Y008113D01*
X001975Y007954D02*
X002213Y007954D01*
X002174Y007796D02*
X001975Y007796D01*
X001975Y007637D02*
X002016Y007637D01*
X001975Y007398D02*
X002462Y007398D01*
X002462Y007362D01*
X001975Y007362D01*
X001975Y007398D01*
X001975Y007162D02*
X001977Y007162D01*
X001975Y007003D02*
X002136Y007003D01*
X002252Y006845D02*
X001975Y006845D01*
X001975Y006686D02*
X002093Y006686D01*
X001990Y006528D02*
X001975Y006528D01*
X001975Y006369D02*
X001990Y006369D01*
X001975Y006211D02*
X001990Y006211D01*
X001975Y006052D02*
X002115Y006052D01*
X001975Y005894D02*
X002274Y005894D01*
X002142Y005735D02*
X001975Y005735D01*
X001975Y005577D02*
X001990Y005577D01*
X001975Y005418D02*
X001990Y005418D01*
X001975Y005260D02*
X001990Y005260D01*
X001975Y005101D02*
X002066Y005101D01*
X001975Y004943D02*
X002225Y004943D01*
X002191Y004784D02*
X001975Y004784D01*
X001975Y004626D02*
X002033Y004626D01*
X001990Y004467D02*
X001975Y004467D01*
X001975Y004309D02*
X001990Y004309D01*
X001975Y004150D02*
X002017Y004150D01*
X001975Y003992D02*
X002176Y003992D01*
X002058Y003516D02*
X001975Y003516D01*
X002462Y007003D02*
X002498Y007003D01*
X002498Y007162D02*
X002462Y007162D01*
X002462Y007320D02*
X002498Y007320D01*
X002498Y007479D02*
X002462Y007479D01*
X002462Y007637D02*
X002498Y007637D01*
X002498Y007796D02*
X002462Y007796D01*
X004310Y008588D02*
X004850Y008588D01*
X004691Y008747D02*
X004469Y008747D01*
X004520Y008905D02*
X004640Y008905D01*
X004640Y009064D02*
X004520Y009064D01*
X004460Y009222D02*
X004700Y009222D01*
X004858Y009381D02*
X004302Y009381D01*
X004420Y009698D02*
X004740Y009698D01*
X004640Y009856D02*
X004520Y009856D01*
X004520Y010015D02*
X004640Y010015D01*
X004651Y010173D02*
X004509Y010173D01*
X004351Y010332D02*
X004809Y010332D01*
X004898Y010540D02*
X005262Y010540D01*
X005520Y010798D01*
X005520Y011162D01*
X005262Y011420D01*
X004898Y011420D01*
X004640Y011162D01*
X004640Y010798D01*
X004898Y010540D01*
X004789Y010649D02*
X004371Y010649D01*
X004520Y010807D02*
X004640Y010807D01*
X004640Y010966D02*
X004520Y010966D01*
X004520Y011124D02*
X004640Y011124D01*
X004760Y011283D02*
X004400Y011283D01*
X004262Y011540D02*
X004520Y011798D01*
X004520Y012162D01*
X004262Y012420D01*
X003898Y012420D01*
X003640Y012162D01*
X003640Y011798D01*
X003898Y011540D01*
X004262Y011540D01*
X004322Y011600D02*
X004838Y011600D01*
X004898Y011540D02*
X005262Y011540D01*
X005520Y011798D01*
X005520Y012162D01*
X005392Y012290D01*
X016621Y012290D01*
X016716Y012195D01*
X016848Y012140D01*
X016992Y012140D01*
X017124Y012195D01*
X017225Y012296D01*
X017280Y012428D01*
X017280Y012572D01*
X017225Y012704D01*
X017124Y012805D01*
X016992Y012860D01*
X016848Y012860D01*
X016716Y012805D01*
X016621Y012710D01*
X005432Y012710D01*
X005520Y012798D01*
X005520Y013162D01*
X005262Y013420D01*
X004898Y013420D01*
X004640Y013162D01*
X004640Y012798D01*
X004728Y012710D01*
X004687Y012710D01*
X004520Y012877D01*
X004520Y013162D01*
X004262Y013420D01*
X003898Y013420D01*
X003640Y013162D01*
X003640Y012798D01*
X003898Y012540D01*
X004262Y012540D01*
X004263Y012540D01*
X004513Y012290D01*
X004768Y012290D01*
X004640Y012162D01*
X004640Y011798D01*
X004898Y011540D01*
X004680Y011758D02*
X004480Y011758D01*
X004520Y011917D02*
X004640Y011917D01*
X004640Y012075D02*
X004520Y012075D01*
X004449Y012234D02*
X004711Y012234D01*
X004411Y012392D02*
X004290Y012392D01*
X003870Y012392D02*
X002970Y012392D01*
X002970Y012234D02*
X003711Y012234D01*
X003640Y012075D02*
X002868Y012075D01*
X002970Y012177D02*
X002683Y011890D01*
X002277Y011890D01*
X001990Y012177D01*
X001990Y012583D01*
X002277Y012870D01*
X002683Y012870D01*
X002970Y012583D01*
X002970Y012177D01*
X002709Y011917D02*
X003640Y011917D01*
X003680Y011758D02*
X002795Y011758D01*
X002683Y011870D02*
X002277Y011870D01*
X001990Y011583D01*
X001990Y011177D01*
X002277Y010890D01*
X002683Y010890D01*
X002970Y011177D01*
X002970Y011583D01*
X002683Y011870D01*
X002953Y011600D02*
X003838Y011600D01*
X003760Y011283D02*
X002970Y011283D01*
X002970Y011441D02*
X021248Y011441D01*
X021168Y011600D02*
X005322Y011600D01*
X005480Y011758D02*
X021009Y011758D01*
X020806Y011917D02*
X005520Y011917D01*
X005520Y012075D02*
X020648Y012075D01*
X020489Y012234D02*
X017163Y012234D01*
X017265Y012392D02*
X020331Y012392D01*
X020172Y012551D02*
X017280Y012551D01*
X017220Y012709D02*
X020014Y012709D01*
X019855Y012868D02*
X005520Y012868D01*
X005520Y013026D02*
X017565Y013026D01*
X018035Y013026D02*
X018365Y013026D01*
X018835Y013026D02*
X019485Y013026D01*
X019378Y013185D02*
X018942Y013185D01*
X018960Y013343D02*
X019360Y013343D01*
X019657Y013660D02*
X021079Y013660D01*
X020970Y013819D02*
X019498Y013819D01*
X020026Y013502D02*
X021237Y013502D01*
X021122Y013343D02*
X020080Y013343D01*
X020132Y013185D02*
X020970Y013185D01*
X020970Y013026D02*
X020291Y013026D01*
X020449Y012868D02*
X020970Y012868D01*
X021030Y012709D02*
X020608Y012709D01*
X020766Y012551D02*
X021188Y012551D01*
X021199Y012392D02*
X020925Y012392D01*
X021462Y012551D02*
X021498Y012551D01*
X021498Y012709D02*
X021462Y012709D01*
X021462Y012868D02*
X021498Y012868D01*
X021498Y012998D02*
X021462Y012998D01*
X021462Y013490D01*
X021462Y013962D01*
X021498Y013962D01*
X021498Y012998D01*
X021498Y013026D02*
X021462Y013026D01*
X021462Y013185D02*
X021498Y013185D01*
X021498Y013343D02*
X021462Y013343D01*
X021462Y013502D02*
X021498Y013502D01*
X021498Y013660D02*
X021462Y013660D01*
X021462Y013819D02*
X021498Y013819D01*
X021462Y013977D02*
X018540Y013977D01*
X018381Y014136D02*
X020970Y014136D01*
X021073Y014294D02*
X018223Y014294D01*
X018064Y014453D02*
X021231Y014453D01*
X021277Y014490D02*
X020990Y014777D01*
X020990Y015183D01*
X021277Y015470D01*
X021683Y015470D01*
X021970Y015183D01*
X021970Y014777D01*
X021683Y014490D01*
X021277Y014490D01*
X021156Y014611D02*
X017906Y014611D01*
X017747Y014770D02*
X020998Y014770D01*
X020990Y014928D02*
X017600Y014928D01*
X017586Y015087D02*
X020990Y015087D01*
X021052Y015245D02*
X017484Y015245D01*
X016996Y015245D02*
X015592Y015245D01*
X015433Y015404D02*
X018734Y015404D01*
X018576Y015562D02*
X015531Y015562D01*
X015492Y016038D02*
X018615Y016038D01*
X018774Y016196D02*
X014641Y016196D01*
X014799Y016038D02*
X014988Y016038D01*
X014522Y015721D02*
X005443Y015721D01*
X005520Y015798D02*
X005262Y015540D01*
X004898Y015540D01*
X004640Y015798D01*
X004640Y016162D01*
X004898Y016420D01*
X005262Y016420D01*
X005520Y016162D01*
X005520Y015798D01*
X005520Y015879D02*
X014364Y015879D01*
X014205Y016038D02*
X005520Y016038D01*
X005486Y016196D02*
X014047Y016196D01*
X013888Y016355D02*
X005328Y016355D01*
X005262Y016540D02*
X005520Y016798D01*
X005520Y017162D01*
X005262Y017420D01*
X004898Y017420D01*
X004640Y017162D01*
X004640Y016798D01*
X004898Y016540D01*
X005262Y016540D01*
X005394Y016672D02*
X013571Y016672D01*
X013413Y016830D02*
X005520Y016830D01*
X005520Y016989D02*
X013254Y016989D01*
X013096Y017147D02*
X005520Y017147D01*
X005377Y017306D02*
X012937Y017306D01*
X012779Y017464D02*
X002689Y017464D01*
X002683Y017470D02*
X002277Y017470D01*
X001990Y017183D01*
X001990Y016777D01*
X002277Y016490D01*
X002683Y016490D01*
X002970Y016777D01*
X002970Y017183D01*
X002683Y017470D01*
X002683Y017490D02*
X002970Y017777D01*
X002970Y018183D01*
X002683Y018470D01*
X002277Y018470D01*
X001990Y018183D01*
X001990Y017777D01*
X002277Y017490D01*
X002683Y017490D01*
X002815Y017623D02*
X003815Y017623D01*
X003898Y017540D02*
X004262Y017540D01*
X004520Y017798D01*
X004520Y018162D01*
X004262Y018420D01*
X003898Y018420D01*
X003640Y018162D01*
X003640Y017798D01*
X003898Y017540D01*
X003898Y017420D02*
X003640Y017162D01*
X003640Y016798D01*
X003898Y016540D01*
X004262Y016540D01*
X004520Y016798D01*
X004520Y017162D01*
X004262Y017420D01*
X003898Y017420D01*
X003783Y017306D02*
X002847Y017306D01*
X002970Y017147D02*
X003640Y017147D01*
X003640Y016989D02*
X002970Y016989D01*
X002970Y016830D02*
X003640Y016830D01*
X003766Y016672D02*
X002864Y016672D01*
X002706Y016513D02*
X013730Y016513D01*
X014007Y016830D02*
X018540Y016830D01*
X018540Y016962D02*
X018540Y016598D01*
X018798Y016340D01*
X019162Y016340D01*
X019420Y016598D01*
X019420Y016962D01*
X019162Y017220D01*
X018798Y017220D01*
X018540Y016962D01*
X018566Y016989D02*
X013848Y016989D01*
X013690Y017147D02*
X018725Y017147D01*
X018798Y017340D02*
X019162Y017340D01*
X019420Y017598D01*
X019420Y017962D01*
X019162Y018220D01*
X018798Y018220D01*
X018540Y017962D01*
X018540Y017598D01*
X018798Y017340D01*
X018674Y017464D02*
X013373Y017464D01*
X013531Y017306D02*
X020229Y017306D01*
X020162Y017340D02*
X020420Y017598D01*
X020420Y017863D01*
X021162Y018605D01*
X021277Y018490D01*
X021683Y018490D01*
X021970Y018777D01*
X021970Y019183D01*
X021683Y019470D01*
X021277Y019470D01*
X020990Y019183D01*
X020990Y019027D01*
X020173Y018210D01*
X020162Y018220D01*
X019798Y018220D01*
X019540Y017962D01*
X019540Y017598D01*
X019798Y017340D01*
X020162Y017340D01*
X020143Y017220D02*
X019798Y017220D01*
X019540Y016962D01*
X019540Y016598D01*
X019798Y016340D01*
X020162Y016340D01*
X020420Y016598D01*
X020420Y016903D01*
X021142Y017625D01*
X021277Y017490D01*
X021683Y017490D01*
X021970Y017777D01*
X021970Y018183D01*
X021683Y018470D01*
X021277Y018470D01*
X020990Y018183D01*
X020990Y018067D01*
X020950Y018027D01*
X020143Y017220D01*
X020286Y017464D02*
X020387Y017464D01*
X020420Y017623D02*
X020546Y017623D01*
X020420Y017781D02*
X020704Y017781D01*
X020863Y017940D02*
X020497Y017940D01*
X020655Y018098D02*
X020990Y018098D01*
X021064Y018257D02*
X020814Y018257D01*
X020972Y018415D02*
X021222Y018415D01*
X021194Y018574D02*
X021131Y018574D01*
X020854Y018891D02*
X020420Y018891D01*
X020420Y018903D02*
X021142Y019625D01*
X021277Y019490D01*
X021683Y019490D01*
X021970Y019777D01*
X021970Y020183D01*
X021683Y020470D01*
X021277Y020470D01*
X020990Y020183D01*
X020990Y020067D01*
X020950Y020027D01*
X020143Y019220D01*
X019798Y019220D01*
X019540Y018962D01*
X019540Y018598D01*
X019798Y018340D01*
X020162Y018340D01*
X020420Y018598D01*
X020420Y018903D01*
X020420Y018732D02*
X020695Y018732D01*
X020537Y018574D02*
X020396Y018574D01*
X020378Y018415D02*
X020237Y018415D01*
X020220Y018257D02*
X015161Y018257D01*
X015151Y018232D02*
X015217Y018393D01*
X015217Y018567D01*
X015151Y018728D01*
X015028Y018851D01*
X014867Y018917D01*
X014693Y018917D01*
X014532Y018851D01*
X014409Y018728D01*
X014343Y018567D01*
X014343Y018393D01*
X014409Y018232D01*
X014532Y018109D01*
X014693Y018043D01*
X014867Y018043D01*
X015028Y018109D01*
X015151Y018232D01*
X015217Y018415D02*
X018723Y018415D01*
X018798Y018340D02*
X019162Y018340D01*
X019420Y018598D01*
X019420Y018962D01*
X019162Y019220D01*
X018798Y019220D01*
X018540Y018962D01*
X018540Y018598D01*
X018798Y018340D01*
X018676Y018098D02*
X015000Y018098D01*
X014560Y018098D02*
X014032Y018098D01*
X014020Y018089D02*
X014078Y018131D01*
X014129Y018182D01*
X014171Y018240D01*
X014204Y018305D01*
X014226Y018373D01*
X014237Y018444D01*
X014237Y018471D01*
X013789Y018471D01*
X013789Y018489D01*
X014237Y018489D01*
X014237Y018516D01*
X014226Y018587D01*
X014204Y018655D01*
X014171Y018720D01*
X014129Y018778D01*
X014078Y018829D01*
X014020Y018871D01*
X013955Y018904D01*
X013887Y018926D01*
X013816Y018937D01*
X013789Y018937D01*
X013789Y018489D01*
X013771Y018489D01*
X013771Y018937D01*
X013744Y018937D01*
X013673Y018926D01*
X013605Y018904D01*
X013540Y018871D01*
X013482Y018829D01*
X013431Y018778D01*
X013389Y018720D01*
X013356Y018655D01*
X013334Y018587D01*
X013323Y018516D01*
X013323Y018489D01*
X013771Y018489D01*
X013771Y018471D01*
X013789Y018471D01*
X013789Y018023D01*
X013816Y018023D01*
X013887Y018034D01*
X013955Y018056D01*
X014020Y018089D01*
X014179Y018257D02*
X014399Y018257D01*
X014343Y018415D02*
X014233Y018415D01*
X014228Y018574D02*
X014346Y018574D01*
X014414Y018732D02*
X014162Y018732D01*
X013981Y018891D02*
X014629Y018891D01*
X014931Y018891D02*
X018540Y018891D01*
X018540Y018732D02*
X015146Y018732D01*
X015214Y018574D02*
X018564Y018574D01*
X018627Y019049D02*
X011788Y019049D01*
X011946Y018891D02*
X013579Y018891D01*
X013771Y018891D02*
X013789Y018891D01*
X013789Y018732D02*
X013771Y018732D01*
X013771Y018574D02*
X013789Y018574D01*
X013771Y018471D02*
X013323Y018471D01*
X013323Y018444D01*
X013334Y018373D01*
X013356Y018305D01*
X013389Y018240D01*
X013431Y018182D01*
X013482Y018131D01*
X013540Y018089D01*
X013605Y018056D01*
X013673Y018034D01*
X013744Y018023D01*
X013771Y018023D01*
X013771Y018471D01*
X013771Y018415D02*
X013789Y018415D01*
X013789Y018257D02*
X013771Y018257D01*
X013771Y018098D02*
X013789Y018098D01*
X013528Y018098D02*
X012739Y018098D01*
X012897Y017940D02*
X018540Y017940D01*
X018540Y017781D02*
X013056Y017781D01*
X013214Y017623D02*
X018540Y017623D01*
X019286Y017464D02*
X019674Y017464D01*
X019540Y017623D02*
X019420Y017623D01*
X019420Y017781D02*
X019540Y017781D01*
X019540Y017940D02*
X019420Y017940D01*
X019284Y018098D02*
X019676Y018098D01*
X019723Y018415D02*
X019237Y018415D01*
X019396Y018574D02*
X019564Y018574D01*
X019540Y018732D02*
X019420Y018732D01*
X019420Y018891D02*
X019540Y018891D01*
X019627Y019049D02*
X019333Y019049D01*
X019175Y019208D02*
X019785Y019208D01*
X019798Y019340D02*
X020162Y019340D01*
X020420Y019598D01*
X020420Y019863D01*
X021162Y020605D01*
X021277Y020490D01*
X021683Y020490D01*
X021970Y020777D01*
X021970Y021183D01*
X021683Y021470D01*
X021277Y021470D01*
X020990Y021183D01*
X020990Y021027D01*
X020173Y020210D01*
X020162Y020220D01*
X019798Y020220D01*
X019540Y019962D01*
X019540Y019598D01*
X019798Y019340D01*
X019772Y019366D02*
X019188Y019366D01*
X019162Y019340D02*
X019420Y019598D01*
X019420Y019962D01*
X019162Y020220D01*
X018798Y020220D01*
X018540Y019962D01*
X018540Y019598D01*
X018798Y019340D01*
X019162Y019340D01*
X019347Y019525D02*
X019613Y019525D01*
X019540Y019683D02*
X019420Y019683D01*
X019420Y019842D02*
X019540Y019842D01*
X019578Y020000D02*
X019382Y020000D01*
X019224Y020159D02*
X019736Y020159D01*
X019798Y020340D02*
X020162Y020340D01*
X020420Y020598D01*
X020420Y020903D01*
X021142Y021625D01*
X021277Y021490D01*
X021683Y021490D01*
X021970Y021777D01*
X021970Y022183D01*
X021683Y022470D01*
X021277Y022470D01*
X020990Y022183D01*
X020990Y022067D01*
X020950Y022027D01*
X020143Y021220D01*
X019798Y021220D01*
X019540Y020962D01*
X019540Y020598D01*
X019798Y020340D01*
X019662Y020476D02*
X019298Y020476D01*
X019420Y020598D02*
X019162Y020340D01*
X018798Y020340D01*
X018540Y020598D01*
X018540Y020962D01*
X018798Y021220D01*
X019162Y021220D01*
X019420Y020962D01*
X019420Y020598D01*
X019420Y020634D02*
X019540Y020634D01*
X019540Y020793D02*
X019420Y020793D01*
X019420Y020951D02*
X019540Y020951D01*
X019687Y021110D02*
X019273Y021110D01*
X019123Y021427D02*
X009410Y021427D01*
X009252Y021585D02*
X018810Y021585D01*
X018647Y021744D02*
X009313Y021744D01*
X009428Y021902D02*
X018532Y021902D01*
X018443Y022061D02*
X009517Y022061D01*
X009559Y022219D02*
X018401Y022219D01*
X018370Y022378D02*
X009590Y022378D01*
X009590Y022536D02*
X018370Y022536D01*
X018388Y022695D02*
X009572Y022695D01*
X009529Y022853D02*
X018431Y022853D01*
X017275Y021221D02*
X016954Y021354D01*
X016606Y021354D01*
X016285Y021221D01*
X016039Y020975D01*
X015906Y020654D01*
X015906Y020306D01*
X016039Y019985D01*
X016285Y019739D01*
X016606Y019606D01*
X016954Y019606D01*
X017275Y019739D01*
X017521Y019985D01*
X017654Y020306D01*
X017654Y020654D01*
X017521Y020975D01*
X017275Y021221D01*
X017161Y021268D02*
X020191Y021268D01*
X020350Y021427D02*
X019837Y021427D01*
X020150Y021585D02*
X020508Y021585D01*
X020667Y021744D02*
X020313Y021744D01*
X020428Y021902D02*
X020825Y021902D01*
X020984Y022061D02*
X020517Y022061D01*
X020559Y022219D02*
X021026Y022219D01*
X021185Y022378D02*
X020590Y022378D01*
X020590Y022536D02*
X021295Y022536D01*
X020978Y022695D02*
X020572Y022695D01*
X020529Y022853D02*
X020661Y022853D01*
X021775Y022378D02*
X021985Y022378D01*
X021985Y022219D02*
X021934Y022219D01*
X021970Y022061D02*
X021985Y022061D01*
X021970Y021902D02*
X021985Y021902D01*
X021985Y021744D02*
X021936Y021744D01*
X021985Y021585D02*
X021778Y021585D01*
X021726Y021427D02*
X021985Y021427D01*
X021985Y021268D02*
X021885Y021268D01*
X021970Y021110D02*
X021985Y021110D01*
X021970Y020951D02*
X021985Y020951D01*
X021970Y020793D02*
X021985Y020793D01*
X021985Y020634D02*
X021827Y020634D01*
X021985Y020476D02*
X021033Y020476D01*
X021124Y020317D02*
X020874Y020317D01*
X020990Y020159D02*
X020716Y020159D01*
X020557Y020000D02*
X020923Y020000D01*
X020765Y019842D02*
X020420Y019842D01*
X020420Y019683D02*
X020606Y019683D01*
X020448Y019525D02*
X020347Y019525D01*
X020289Y019366D02*
X020188Y019366D01*
X020566Y019049D02*
X020990Y019049D01*
X021015Y019208D02*
X020725Y019208D01*
X020883Y019366D02*
X021173Y019366D01*
X021243Y019525D02*
X021042Y019525D01*
X021717Y019525D02*
X021985Y019525D01*
X021985Y019683D02*
X021876Y019683D01*
X021970Y019842D02*
X021985Y019842D01*
X021970Y020000D02*
X021985Y020000D01*
X021970Y020159D02*
X021985Y020159D01*
X021985Y020317D02*
X021836Y020317D01*
X021787Y019366D02*
X021985Y019366D01*
X021985Y019208D02*
X021945Y019208D01*
X021970Y019049D02*
X021985Y019049D01*
X021970Y018891D02*
X021985Y018891D01*
X021985Y018732D02*
X021925Y018732D01*
X021985Y018574D02*
X021766Y018574D01*
X021738Y018415D02*
X021985Y018415D01*
X021985Y018257D02*
X021896Y018257D01*
X021970Y018098D02*
X021985Y018098D01*
X021970Y017940D02*
X021985Y017940D01*
X021970Y017781D02*
X021985Y017781D01*
X021985Y017623D02*
X021815Y017623D01*
X021683Y017470D02*
X021277Y017470D01*
X020990Y017183D01*
X020990Y017027D01*
X020173Y016210D01*
X020162Y016220D01*
X019798Y016220D01*
X019540Y015962D01*
X019540Y015598D01*
X019798Y015340D01*
X020162Y015340D01*
X020420Y015598D01*
X020420Y015863D01*
X021162Y016605D01*
X021277Y016490D01*
X021683Y016490D01*
X021970Y016777D01*
X021970Y017183D01*
X021683Y017470D01*
X021689Y017464D02*
X021985Y017464D01*
X021985Y017306D02*
X021847Y017306D01*
X021970Y017147D02*
X021985Y017147D01*
X021970Y016989D02*
X021985Y016989D01*
X021970Y016830D02*
X021985Y016830D01*
X021985Y016672D02*
X021864Y016672D01*
X021985Y016513D02*
X021706Y016513D01*
X021985Y016355D02*
X020912Y016355D01*
X021070Y016513D02*
X021254Y016513D01*
X020793Y016830D02*
X020420Y016830D01*
X020420Y016672D02*
X020635Y016672D01*
X020476Y016513D02*
X020335Y016513D01*
X020318Y016355D02*
X020177Y016355D01*
X019783Y016355D02*
X019177Y016355D01*
X019186Y016196D02*
X019774Y016196D01*
X019615Y016038D02*
X019345Y016038D01*
X019420Y015879D02*
X019540Y015879D01*
X019540Y015721D02*
X019420Y015721D01*
X019384Y015562D02*
X019576Y015562D01*
X019734Y015404D02*
X019226Y015404D01*
X020226Y015404D02*
X021211Y015404D01*
X020595Y016038D02*
X021985Y016038D01*
X021985Y016196D02*
X020753Y016196D01*
X020436Y015879D02*
X021985Y015879D01*
X021985Y015721D02*
X020420Y015721D01*
X020384Y015562D02*
X021985Y015562D01*
X021985Y015404D02*
X021749Y015404D01*
X021908Y015245D02*
X021985Y015245D01*
X021970Y015087D02*
X021985Y015087D01*
X021970Y014928D02*
X021985Y014928D01*
X021985Y014770D02*
X021962Y014770D01*
X021985Y014611D02*
X021804Y014611D01*
X021729Y014453D02*
X021985Y014453D01*
X021985Y014294D02*
X021887Y014294D01*
X021498Y014294D02*
X021462Y014294D01*
X021462Y014136D02*
X021498Y014136D01*
X021498Y014453D02*
X021462Y014453D01*
X021930Y012709D02*
X021985Y012709D01*
X021985Y012551D02*
X021772Y012551D01*
X021761Y012392D02*
X021985Y012392D01*
X021985Y012234D02*
X021919Y012234D01*
X021970Y012075D02*
X021985Y012075D01*
X021970Y011917D02*
X021985Y011917D01*
X021985Y011758D02*
X021951Y011758D01*
X021985Y011600D02*
X021792Y011600D01*
X021712Y011441D02*
X021985Y011441D01*
X021985Y011283D02*
X021870Y011283D01*
X021970Y011124D02*
X021985Y011124D01*
X021970Y010966D02*
X021985Y010966D01*
X021970Y010807D02*
X021985Y010807D01*
X021985Y010649D02*
X021841Y010649D01*
X021970Y010173D02*
X021985Y010173D01*
X021970Y010015D02*
X021985Y010015D01*
X021970Y009856D02*
X021985Y009856D01*
X021985Y009698D02*
X021890Y009698D01*
X021985Y009539D02*
X021732Y009539D01*
X021772Y009381D02*
X021985Y009381D01*
X021985Y009222D02*
X021931Y009222D01*
X021970Y009064D02*
X021985Y009064D01*
X021970Y008905D02*
X021985Y008905D01*
X021985Y008747D02*
X021939Y008747D01*
X021985Y008588D02*
X021781Y008588D01*
X021723Y008430D02*
X021985Y008430D01*
X021985Y008271D02*
X021882Y008271D01*
X021970Y008113D02*
X021985Y008113D01*
X021970Y007954D02*
X021985Y007954D01*
X021970Y007796D02*
X021985Y007796D01*
X021985Y007637D02*
X021830Y007637D01*
X021179Y008588D02*
X005310Y008588D01*
X005469Y008747D02*
X021021Y008747D01*
X020990Y008905D02*
X005520Y008905D01*
X005520Y009064D02*
X020990Y009064D01*
X021029Y009222D02*
X005460Y009222D01*
X005371Y010649D02*
X021119Y010649D01*
X020990Y010807D02*
X005520Y010807D01*
X005520Y010966D02*
X020990Y010966D01*
X020990Y011124D02*
X005520Y011124D01*
X005400Y011283D02*
X021090Y011283D01*
X018263Y013660D02*
X015257Y013660D01*
X015098Y013819D02*
X018104Y013819D01*
X017946Y013977D02*
X014940Y013977D01*
X014781Y014136D02*
X017787Y014136D01*
X017629Y014294D02*
X014640Y014294D01*
X014623Y014453D02*
X017470Y014453D01*
X017312Y014611D02*
X014518Y014611D01*
X014042Y014611D02*
X005333Y014611D01*
X005262Y014540D02*
X005520Y014798D01*
X005520Y015162D01*
X005262Y015420D01*
X004898Y015420D01*
X004640Y015162D01*
X004640Y014798D01*
X004898Y014540D01*
X005262Y014540D01*
X005262Y014420D02*
X004898Y014420D01*
X004640Y014162D01*
X004640Y013798D01*
X004898Y013540D01*
X005262Y013540D01*
X005520Y013798D01*
X005520Y014162D01*
X005262Y014420D01*
X005388Y014294D02*
X013920Y014294D01*
X013937Y014453D02*
X001975Y014453D01*
X001975Y014611D02*
X002156Y014611D01*
X002277Y014490D02*
X002683Y014490D01*
X002970Y014777D01*
X002970Y015183D01*
X002683Y015470D01*
X002277Y015470D01*
X001990Y015183D01*
X001990Y014777D01*
X002277Y014490D01*
X001975Y014294D02*
X003772Y014294D01*
X003898Y014420D02*
X003640Y014162D01*
X003640Y013798D01*
X003898Y013540D01*
X004262Y013540D01*
X004520Y013798D01*
X004520Y014162D01*
X004262Y014420D01*
X003898Y014420D01*
X003898Y014540D02*
X004262Y014540D01*
X004520Y014798D01*
X004520Y015162D01*
X004262Y015420D01*
X003898Y015420D01*
X003640Y015162D01*
X003640Y014798D01*
X003898Y014540D01*
X003827Y014611D02*
X002804Y014611D01*
X002962Y014770D02*
X003668Y014770D01*
X003640Y014928D02*
X002970Y014928D01*
X002970Y015087D02*
X003640Y015087D01*
X003723Y015245D02*
X002908Y015245D01*
X002749Y015404D02*
X003881Y015404D01*
X003898Y015540D02*
X004262Y015540D01*
X004520Y015798D01*
X004520Y016162D01*
X004262Y016420D01*
X003898Y016420D01*
X003640Y016162D01*
X003640Y015798D01*
X003898Y015540D01*
X003876Y015562D02*
X002755Y015562D01*
X002683Y015490D02*
X002970Y015777D01*
X002970Y016183D01*
X002683Y016470D01*
X002277Y016470D01*
X001990Y016183D01*
X001990Y015777D01*
X002277Y015490D01*
X002683Y015490D01*
X002913Y015721D02*
X003717Y015721D01*
X003640Y015879D02*
X002970Y015879D01*
X002970Y016038D02*
X003640Y016038D01*
X003674Y016196D02*
X002957Y016196D01*
X002798Y016355D02*
X003832Y016355D01*
X004328Y016355D02*
X004832Y016355D01*
X004674Y016196D02*
X004486Y016196D01*
X004520Y016038D02*
X004640Y016038D01*
X004640Y015879D02*
X004520Y015879D01*
X004443Y015721D02*
X004717Y015721D01*
X004876Y015562D02*
X004284Y015562D01*
X004279Y015404D02*
X004881Y015404D01*
X004723Y015245D02*
X004437Y015245D01*
X004520Y015087D02*
X004640Y015087D01*
X004640Y014928D02*
X004520Y014928D01*
X004492Y014770D02*
X004668Y014770D01*
X004827Y014611D02*
X004333Y014611D01*
X004388Y014294D02*
X004772Y014294D01*
X004640Y014136D02*
X004520Y014136D01*
X004520Y013977D02*
X004640Y013977D01*
X004640Y013819D02*
X004520Y013819D01*
X004382Y013660D02*
X004778Y013660D01*
X004821Y013343D02*
X004339Y013343D01*
X004498Y013185D02*
X004662Y013185D01*
X004640Y013026D02*
X004520Y013026D01*
X004529Y012868D02*
X004640Y012868D01*
X003887Y012551D02*
X002970Y012551D01*
X002844Y012709D02*
X003729Y012709D01*
X003640Y012868D02*
X002685Y012868D01*
X002683Y012890D02*
X002970Y013177D01*
X002970Y013583D01*
X002683Y013870D01*
X002277Y013870D01*
X001990Y013583D01*
X001990Y013177D01*
X002277Y012890D01*
X002683Y012890D01*
X002819Y013026D02*
X003640Y013026D01*
X003662Y013185D02*
X002970Y013185D01*
X002970Y013343D02*
X003821Y013343D01*
X003778Y013660D02*
X002893Y013660D01*
X002970Y013502D02*
X014821Y013502D01*
X014663Y013660D02*
X005382Y013660D01*
X005520Y013819D02*
X014504Y013819D01*
X014346Y013977D02*
X005520Y013977D01*
X005520Y014136D02*
X013975Y014136D01*
X014980Y013343D02*
X005339Y013343D01*
X005498Y013185D02*
X015138Y013185D01*
X015315Y014928D02*
X005520Y014928D01*
X005520Y015087D02*
X015156Y015087D01*
X014998Y015245D02*
X005437Y015245D01*
X005279Y015404D02*
X014839Y015404D01*
X014681Y015562D02*
X005284Y015562D01*
X005492Y014770D02*
X016941Y014770D01*
X018625Y016513D02*
X014324Y016513D01*
X014482Y016355D02*
X018783Y016355D01*
X018540Y016672D02*
X014165Y016672D01*
X013381Y018257D02*
X012580Y018257D01*
X012422Y018415D02*
X013327Y018415D01*
X013332Y018574D02*
X012263Y018574D01*
X012105Y018732D02*
X013398Y018732D01*
X012954Y019606D02*
X012606Y019606D01*
X012285Y019739D01*
X012039Y019985D01*
X011906Y020306D01*
X011906Y020654D01*
X012039Y020975D01*
X012285Y021221D01*
X012606Y021354D01*
X012954Y021354D01*
X013275Y021221D01*
X013521Y020975D01*
X013654Y020654D01*
X013654Y020306D01*
X013521Y019985D01*
X013275Y019739D01*
X012954Y019606D01*
X013139Y019683D02*
X016421Y019683D01*
X016183Y019842D02*
X013377Y019842D01*
X013527Y020000D02*
X016033Y020000D01*
X015967Y020159D02*
X013593Y020159D01*
X013654Y020317D02*
X015906Y020317D01*
X015906Y020476D02*
X013654Y020476D01*
X013654Y020634D02*
X015906Y020634D01*
X015964Y020793D02*
X013596Y020793D01*
X013531Y020951D02*
X016029Y020951D01*
X016174Y021110D02*
X013386Y021110D01*
X013161Y021268D02*
X016399Y021268D01*
X017386Y021110D02*
X018687Y021110D01*
X018540Y020951D02*
X017531Y020951D01*
X017596Y020793D02*
X018540Y020793D01*
X018540Y020634D02*
X017654Y020634D01*
X017654Y020476D02*
X018662Y020476D01*
X018736Y020159D02*
X017593Y020159D01*
X017654Y020317D02*
X020280Y020317D01*
X020298Y020476D02*
X020439Y020476D01*
X020420Y020634D02*
X020597Y020634D01*
X020756Y020793D02*
X020420Y020793D01*
X020468Y020951D02*
X020914Y020951D01*
X020990Y021110D02*
X020627Y021110D01*
X020785Y021268D02*
X021075Y021268D01*
X020944Y021427D02*
X021234Y021427D01*
X021182Y021585D02*
X021102Y021585D01*
X018772Y019366D02*
X011471Y019366D01*
X011629Y019208D02*
X018785Y019208D01*
X018613Y019525D02*
X011312Y019525D01*
X011154Y019683D02*
X012421Y019683D01*
X012183Y019842D02*
X010995Y019842D01*
X010880Y020000D02*
X012033Y020000D01*
X011967Y020159D02*
X010852Y020159D01*
X010732Y020317D02*
X011906Y020317D01*
X011906Y020476D02*
X010361Y020476D01*
X010203Y020634D02*
X011906Y020634D01*
X011964Y020793D02*
X010044Y020793D01*
X009886Y020951D02*
X012029Y020951D01*
X012174Y021110D02*
X009727Y021110D01*
X009569Y021268D02*
X012399Y021268D01*
X010718Y019525D02*
X002717Y019525D01*
X002683Y019490D02*
X002970Y019777D01*
X002970Y020183D01*
X002683Y020470D01*
X002277Y020470D01*
X001990Y020183D01*
X001990Y019777D01*
X002277Y019490D01*
X002683Y019490D01*
X002683Y019470D02*
X002277Y019470D01*
X001990Y019183D01*
X001990Y018777D01*
X002277Y018490D01*
X002683Y018490D01*
X002970Y018777D01*
X002970Y019183D01*
X002683Y019470D01*
X002787Y019366D02*
X003844Y019366D01*
X003898Y019420D02*
X003640Y019162D01*
X003640Y018798D01*
X003898Y018540D01*
X004262Y018540D01*
X004520Y018798D01*
X004520Y019162D01*
X004262Y019420D01*
X003898Y019420D01*
X003898Y019540D02*
X004262Y019540D01*
X004520Y019798D01*
X004520Y020162D01*
X004262Y020420D01*
X003898Y020420D01*
X003640Y020162D01*
X003640Y019798D01*
X003898Y019540D01*
X003755Y019683D02*
X002876Y019683D01*
X002970Y019842D02*
X003640Y019842D01*
X003640Y020000D02*
X002970Y020000D01*
X002970Y020159D02*
X003640Y020159D01*
X003795Y020317D02*
X002836Y020317D01*
X002683Y020490D02*
X002970Y020777D01*
X002970Y021183D01*
X002683Y021470D01*
X002277Y021470D01*
X001990Y021183D01*
X001990Y020777D01*
X002277Y020490D01*
X002683Y020490D01*
X002827Y020634D02*
X009609Y020634D01*
X009767Y020476D02*
X001975Y020476D01*
X001975Y020634D02*
X002133Y020634D01*
X001990Y020793D02*
X001975Y020793D01*
X001975Y020951D02*
X001990Y020951D01*
X001975Y021110D02*
X001990Y021110D01*
X001975Y021268D02*
X002075Y021268D01*
X001975Y021427D02*
X002234Y021427D01*
X002182Y021585D02*
X001975Y021585D01*
X001975Y021744D02*
X002024Y021744D01*
X002778Y021585D02*
X004034Y021585D01*
X004020Y021744D02*
X002936Y021744D01*
X002970Y021902D02*
X004020Y021902D01*
X004020Y022061D02*
X002970Y022061D01*
X002934Y022219D02*
X004020Y022219D01*
X004035Y022378D02*
X002775Y022378D01*
X002726Y021427D02*
X004110Y021427D01*
X004321Y021268D02*
X002885Y021268D01*
X002970Y021110D02*
X009133Y021110D01*
X009292Y020951D02*
X002970Y020951D01*
X002970Y020793D02*
X009450Y020793D01*
X009926Y020317D02*
X005365Y020317D01*
X005262Y020420D02*
X004898Y020420D01*
X004640Y020162D01*
X004640Y019798D01*
X004898Y019540D01*
X005262Y019540D01*
X005520Y019798D01*
X005520Y020162D01*
X005262Y020420D01*
X005520Y020159D02*
X010084Y020159D01*
X010160Y020000D02*
X005520Y020000D01*
X005520Y019842D02*
X010204Y019842D01*
X010393Y019683D02*
X005405Y019683D01*
X005262Y019420D02*
X004898Y019420D01*
X004640Y019162D01*
X004640Y018798D01*
X004898Y018540D01*
X005262Y018540D01*
X005520Y018798D01*
X005520Y019162D01*
X005262Y019420D01*
X005316Y019366D02*
X010877Y019366D01*
X011035Y019208D02*
X005475Y019208D01*
X005520Y019049D02*
X011194Y019049D01*
X011352Y018891D02*
X005520Y018891D01*
X005454Y018732D02*
X011511Y018732D01*
X011669Y018574D02*
X005296Y018574D01*
X005262Y018420D02*
X004898Y018420D01*
X004640Y018162D01*
X004640Y017798D01*
X004898Y017540D01*
X005262Y017540D01*
X005520Y017798D01*
X005520Y018162D01*
X005262Y018420D01*
X005267Y018415D02*
X011828Y018415D01*
X011986Y018257D02*
X005426Y018257D01*
X005520Y018098D02*
X012145Y018098D01*
X012303Y017940D02*
X005520Y017940D01*
X005503Y017781D02*
X012462Y017781D01*
X012620Y017623D02*
X005345Y017623D01*
X004815Y017623D02*
X004345Y017623D01*
X004503Y017781D02*
X004657Y017781D01*
X004640Y017940D02*
X004520Y017940D01*
X004520Y018098D02*
X004640Y018098D01*
X004734Y018257D02*
X004426Y018257D01*
X004267Y018415D02*
X004893Y018415D01*
X004864Y018574D02*
X004296Y018574D01*
X004454Y018732D02*
X004706Y018732D01*
X004640Y018891D02*
X004520Y018891D01*
X004520Y019049D02*
X004640Y019049D01*
X004685Y019208D02*
X004475Y019208D01*
X004316Y019366D02*
X004844Y019366D01*
X004755Y019683D02*
X004405Y019683D01*
X004520Y019842D02*
X004640Y019842D01*
X004640Y020000D02*
X004520Y020000D01*
X004520Y020159D02*
X004640Y020159D01*
X004795Y020317D02*
X004365Y020317D01*
X004470Y021268D02*
X004490Y021268D01*
X004639Y021268D02*
X005373Y021268D01*
X005587Y021268D02*
X006373Y021268D01*
X006587Y021268D02*
X006895Y021268D01*
X006131Y021427D02*
X005829Y021427D01*
X005909Y021585D02*
X006051Y021585D01*
X006040Y021744D02*
X005920Y021744D01*
X005920Y021902D02*
X006040Y021902D01*
X006040Y022061D02*
X005920Y022061D01*
X005920Y022219D02*
X006040Y022219D01*
X006052Y022378D02*
X005908Y022378D01*
X005052Y022378D02*
X004925Y022378D01*
X004940Y022219D02*
X005040Y022219D01*
X005040Y022061D02*
X004940Y022061D01*
X004940Y021902D02*
X005040Y021902D01*
X005040Y021744D02*
X004940Y021744D01*
X004926Y021585D02*
X005051Y021585D01*
X005131Y021427D02*
X004850Y021427D01*
X004490Y021427D02*
X004470Y021427D01*
X004470Y021585D02*
X004490Y021585D01*
X004490Y021744D02*
X004470Y021744D01*
X004470Y021902D02*
X004490Y021902D01*
X002124Y020317D02*
X001975Y020317D01*
X001975Y020159D02*
X001990Y020159D01*
X001975Y020000D02*
X001990Y020000D01*
X001975Y019842D02*
X001990Y019842D01*
X001975Y019683D02*
X002084Y019683D01*
X001975Y019525D02*
X002243Y019525D01*
X002173Y019366D02*
X001975Y019366D01*
X001975Y019208D02*
X002015Y019208D01*
X001990Y019049D02*
X001975Y019049D01*
X001975Y018891D02*
X001990Y018891D01*
X001975Y018732D02*
X002035Y018732D01*
X001975Y018574D02*
X002194Y018574D01*
X002222Y018415D02*
X001975Y018415D01*
X001975Y018257D02*
X002064Y018257D01*
X001990Y018098D02*
X001975Y018098D01*
X001975Y017940D02*
X001990Y017940D01*
X001975Y017781D02*
X001990Y017781D01*
X001975Y017623D02*
X002145Y017623D01*
X002271Y017464D02*
X001975Y017464D01*
X001975Y017306D02*
X002113Y017306D01*
X001990Y017147D02*
X001975Y017147D01*
X001975Y016989D02*
X001990Y016989D01*
X001975Y016830D02*
X001990Y016830D01*
X001975Y016672D02*
X002096Y016672D01*
X001975Y016513D02*
X002254Y016513D01*
X002162Y016355D02*
X001975Y016355D01*
X001975Y016196D02*
X002003Y016196D01*
X001990Y016038D02*
X001975Y016038D01*
X001975Y015879D02*
X001990Y015879D01*
X001975Y015721D02*
X002047Y015721D01*
X001975Y015562D02*
X002205Y015562D01*
X002211Y015404D02*
X001975Y015404D01*
X001975Y015245D02*
X002052Y015245D01*
X001990Y015087D02*
X001975Y015087D01*
X001975Y014928D02*
X001990Y014928D01*
X001975Y014770D02*
X001998Y014770D01*
X001975Y014136D02*
X003640Y014136D01*
X003640Y013977D02*
X001975Y013977D01*
X001975Y013819D02*
X002226Y013819D01*
X002067Y013660D02*
X001975Y013660D01*
X001975Y013502D02*
X001990Y013502D01*
X001975Y013343D02*
X001990Y013343D01*
X001975Y013185D02*
X001990Y013185D01*
X001975Y013026D02*
X002141Y013026D01*
X002275Y012868D02*
X001975Y012868D01*
X001975Y012709D02*
X002116Y012709D01*
X001990Y012551D02*
X001975Y012551D01*
X001975Y012392D02*
X001990Y012392D01*
X001975Y012234D02*
X001990Y012234D01*
X001975Y012075D02*
X002092Y012075D01*
X001975Y011917D02*
X002251Y011917D01*
X002165Y011758D02*
X001975Y011758D01*
X001975Y011600D02*
X002007Y011600D01*
X001990Y011441D02*
X001975Y011441D01*
X001975Y011283D02*
X001990Y011283D01*
X001975Y011124D02*
X002043Y011124D01*
X001975Y010966D02*
X002202Y010966D01*
X002214Y010807D02*
X001975Y010807D01*
X001975Y010649D02*
X002056Y010649D01*
X001990Y010490D02*
X001975Y010490D01*
X001975Y010332D02*
X001990Y010332D01*
X001975Y010173D02*
X001994Y010173D01*
X001975Y010015D02*
X002153Y010015D01*
X002746Y010807D02*
X003640Y010807D01*
X003640Y010966D02*
X002758Y010966D01*
X002917Y011124D02*
X003640Y011124D01*
X005449Y012234D02*
X016677Y012234D01*
X019335Y016513D02*
X019625Y016513D01*
X019540Y016672D02*
X019420Y016672D01*
X019420Y016830D02*
X019540Y016830D01*
X019566Y016989D02*
X019394Y016989D01*
X019235Y017147D02*
X019725Y017147D01*
X020506Y016989D02*
X020952Y016989D01*
X020990Y017147D02*
X020664Y017147D01*
X020823Y017306D02*
X021113Y017306D01*
X020981Y017464D02*
X021271Y017464D01*
X021145Y017623D02*
X021140Y017623D01*
X018540Y019683D02*
X017139Y019683D01*
X017377Y019842D02*
X018540Y019842D01*
X018578Y020000D02*
X017527Y020000D01*
X004783Y017306D02*
X004377Y017306D01*
X004520Y017147D02*
X004640Y017147D01*
X004640Y016989D02*
X004520Y016989D01*
X004520Y016830D02*
X004640Y016830D01*
X004766Y016672D02*
X004394Y016672D01*
X003657Y017781D02*
X002970Y017781D01*
X002970Y017940D02*
X003640Y017940D01*
X003640Y018098D02*
X002970Y018098D01*
X002896Y018257D02*
X003734Y018257D01*
X003893Y018415D02*
X002738Y018415D01*
X002766Y018574D02*
X003864Y018574D01*
X003706Y018732D02*
X002925Y018732D01*
X002970Y018891D02*
X003640Y018891D01*
X003640Y019049D02*
X002970Y019049D01*
X002945Y019208D02*
X003685Y019208D01*
X003640Y013819D02*
X002734Y013819D01*
D15*
X004080Y012980D02*
X004120Y012980D01*
X004600Y012500D01*
X016920Y012500D01*
X017800Y013300D02*
X015320Y013300D01*
X014280Y014340D01*
X015560Y014980D02*
X017240Y014980D01*
X018520Y013700D01*
X019320Y013700D01*
X019720Y013300D01*
X021000Y012020D01*
X021480Y012020D01*
X021480Y011980D01*
X018600Y013300D02*
X017800Y013300D01*
X018980Y015780D02*
X015240Y015780D01*
X015560Y014980D02*
X010520Y020020D01*
X009160Y021380D01*
X007080Y021380D01*
X006480Y021980D01*
X019980Y020780D02*
X020040Y020820D01*
X021160Y021940D01*
X021480Y021940D01*
X021480Y021980D01*
X021480Y020980D02*
X021240Y020980D01*
X020040Y019780D01*
X019980Y019780D01*
X020040Y018820D02*
X019980Y018780D01*
X020040Y018820D02*
X021160Y019940D01*
X021480Y019940D01*
X021480Y019980D01*
X021480Y018980D02*
X021240Y018980D01*
X020040Y017780D01*
X019980Y017780D01*
X020040Y016820D02*
X019980Y016780D01*
X020040Y016820D02*
X021160Y017940D01*
X021480Y017940D01*
X021480Y017980D01*
X021480Y016980D02*
X021240Y016980D01*
X020040Y015780D01*
X019980Y015780D01*
D16*
X019720Y013300D03*
X018600Y013300D03*
X017800Y013300D03*
X016920Y012500D03*
X017240Y014980D03*
X015240Y015780D03*
X014280Y014340D03*
X010520Y020020D03*
M02*
